<mxfile host="app.diagrams.net" modified="2020-09-18T18:48:17.832Z" agent="5.0 (Macintosh; Intel Mac OS X 10_14_5) AppleWebKit/605.1.15 (KHTML, like Gecko) Version/13.1.1 Safari/605.1.15" etag="CI3glH4E-lOKHM_Mq5o1" version="13.7.3" type="github">
  <diagram id="C5RBs43oDa-KdzZeNtuy" name="Page-1">
    <mxGraphModel dx="1047" dy="812" grid="1" gridSize="10" guides="1" tooltips="1" connect="1" arrows="1" fold="1" page="1" pageScale="1" pageWidth="827" pageHeight="1169" math="0" shadow="0">
      <root>
        <mxCell id="WIyWlLk6GJQsqaUBKTNV-0" />
        <mxCell id="WIyWlLk6GJQsqaUBKTNV-1" parent="WIyWlLk6GJQsqaUBKTNV-0" />
        <mxCell id="mqhKiFu5YFuA_Pw7x4gI-0" value="" style="group" vertex="1" connectable="0" parent="WIyWlLk6GJQsqaUBKTNV-1">
          <mxGeometry x="30" y="120" width="630" height="540" as="geometry" />
        </mxCell>
        <mxCell id="XRujS5yeMKPGucZoT4yX-9" value="" style="rounded=1;whiteSpace=wrap;html=1;" parent="mqhKiFu5YFuA_Pw7x4gI-0" vertex="1">
          <mxGeometry width="630" height="540" as="geometry" />
        </mxCell>
        <mxCell id="NUBPvpAzCJjT9DOlmw2v-7" value="" style="group" parent="mqhKiFu5YFuA_Pw7x4gI-0" vertex="1" connectable="0">
          <mxGeometry x="60" y="48" width="510" height="160" as="geometry" />
        </mxCell>
        <mxCell id="NUBPvpAzCJjT9DOlmw2v-3" value="" style="rounded=0;whiteSpace=wrap;html=1;" parent="NUBPvpAzCJjT9DOlmw2v-7" vertex="1">
          <mxGeometry y="20" width="510" height="140" as="geometry" />
        </mxCell>
        <mxCell id="NUBPvpAzCJjT9DOlmw2v-1" value="Transformers" style="rounded=0;whiteSpace=wrap;html=1;" parent="NUBPvpAzCJjT9DOlmw2v-7" vertex="1">
          <mxGeometry x="10" y="30" width="340" height="20" as="geometry" />
        </mxCell>
        <mxCell id="NUBPvpAzCJjT9DOlmw2v-2" value="Add Keywords" style="rounded=1;whiteSpace=wrap;html=1;" parent="NUBPvpAzCJjT9DOlmw2v-7" vertex="1">
          <mxGeometry x="370" y="30" width="120" height="60" as="geometry" />
        </mxCell>
        <mxCell id="NUBPvpAzCJjT9DOlmw2v-4" value="Sentiment Analysis" style="rounded=0;whiteSpace=wrap;html=1;" parent="NUBPvpAzCJjT9DOlmw2v-7" vertex="1">
          <mxGeometry x="10" y="90" width="340" height="20" as="geometry" />
        </mxCell>
        <mxCell id="NUBPvpAzCJjT9DOlmw2v-5" value="Semantic Parsing" style="rounded=0;whiteSpace=wrap;html=1;" parent="NUBPvpAzCJjT9DOlmw2v-7" vertex="1">
          <mxGeometry x="10" y="60" width="340" height="20" as="geometry" />
        </mxCell>
        <mxCell id="NUBPvpAzCJjT9DOlmw2v-6" value="Enter Keywords&amp;nbsp;" style="rounded=0;whiteSpace=wrap;html=1;" parent="NUBPvpAzCJjT9DOlmw2v-7" vertex="1">
          <mxGeometry width="190" height="20" as="geometry" />
        </mxCell>
        <mxCell id="XRujS5yeMKPGucZoT4yX-1" value="" style="group" parent="mqhKiFu5YFuA_Pw7x4gI-0" vertex="1" connectable="0">
          <mxGeometry x="60" y="240" width="510" height="160" as="geometry" />
        </mxCell>
        <mxCell id="XRujS5yeMKPGucZoT4yX-2" value="" style="rounded=0;whiteSpace=wrap;html=1;" parent="XRujS5yeMKPGucZoT4yX-1" vertex="1">
          <mxGeometry y="20" width="510" height="140" as="geometry" />
        </mxCell>
        <mxCell id="XRujS5yeMKPGucZoT4yX-3" value="xxx.pdf" style="rounded=0;whiteSpace=wrap;html=1;" parent="XRujS5yeMKPGucZoT4yX-1" vertex="1">
          <mxGeometry x="10" y="30" width="340" height="20" as="geometry" />
        </mxCell>
        <mxCell id="XRujS5yeMKPGucZoT4yX-4" value="Upload Files" style="rounded=1;whiteSpace=wrap;html=1;" parent="XRujS5yeMKPGucZoT4yX-1" vertex="1">
          <mxGeometry x="370" y="30" width="120" height="60" as="geometry" />
        </mxCell>
        <mxCell id="XRujS5yeMKPGucZoT4yX-5" value="xxx.pdf" style="rounded=0;whiteSpace=wrap;html=1;" parent="XRujS5yeMKPGucZoT4yX-1" vertex="1">
          <mxGeometry x="10" y="90" width="340" height="20" as="geometry" />
        </mxCell>
        <mxCell id="XRujS5yeMKPGucZoT4yX-6" value="xxx.pdf" style="rounded=0;whiteSpace=wrap;html=1;" parent="XRujS5yeMKPGucZoT4yX-1" vertex="1">
          <mxGeometry x="10" y="60" width="340" height="20" as="geometry" />
        </mxCell>
        <mxCell id="XRujS5yeMKPGucZoT4yX-7" value="Upload Files" style="rounded=0;whiteSpace=wrap;html=1;" parent="XRujS5yeMKPGucZoT4yX-1" vertex="1">
          <mxGeometry width="190" height="20" as="geometry" />
        </mxCell>
        <mxCell id="XRujS5yeMKPGucZoT4yX-8" value="Create Resource Domain &amp;nbsp;" style="rounded=1;whiteSpace=wrap;html=1;" parent="mqhKiFu5YFuA_Pw7x4gI-0" vertex="1">
          <mxGeometry x="256" y="432" width="120" height="60" as="geometry" />
        </mxCell>
      </root>
    </mxGraphModel>
  </diagram>
</mxfile>
